<?xml version="1.0"?>
<svg xmlns:rdf="http://www.w3.org/1999/02/22-rdf-syntax-ns#" xmlns="http://www.w3.org/2000/svg" xmlns:cc="http://creativecommons.org/ns#" xmlns:xlink="http://www.w3.org/1999/xlink" xmlns:dc="http://purl.org/dc/elements/1.1/" xmlns:svg="http://www.w3.org/2000/svg" id="svg4305" viewBox="0 0 744.09 1052.4">
  <defs id="defs4307">
    <filter id="filter4850" y="-.16013" width="1.1597" height="1.3203" x="-.079826">
      <feGaussianBlur id="feGaussianBlur4852" stdDeviation="0.27763686"/>
    </filter>
  </defs>
  <g id="layer1">
    <g id="g7480" transform="translate(16.005)">
      <g id="g7382">
        <g id="g7285" transform="matrix(.90885 0 0 .90885 17.902 27.306)">
          <path id="rect7724" opacity=".79808" d="m0.0011997-0.0021925l744.1-0.0003484s0.01 240.17 0 241.09c-261.57-82.57-503.85-84.33-744.09-4.92l-0.0088003-236.17z" stroke-opacity="0" fill="#5c96ff"/>
          <path id="path4246" d="m0.0064564 236.17c241-92.45 478.1-87.98 744.1 4.91l-3.26 806.02-740.84 5.3-0.0035436-816.23z" fill="#f6f6f6"/>
          <path id="path6275" d="m304.05 910.38c-20.74-3.61-310.82-479.92-106.5-451.52 71.88 9.99 136.27-8.99 55.84-125.34-0.06-0.09-0.13-0.19-0.2-0.28-34.13-49.3-65.99-59.72-58.21-92.12 6.62-27.55 177.59-49.6 176.96-71.92" stroke="#ebebeb" stroke-width="9.0633" fill="none"/>
          <g id="g7186" transform="translate(31.866 31.866)">
            <path id="path7184" d="m536.19 125.01c-16.54-12.78-31.58-18.96-45.66-21.28 16.35 19.32 42.64 38.84 64.96 57.64l20.34-0.13c-9.84-8.62-21.6-21.46-39.64-36.23z" fill="#818181" fill-rule="evenodd"/>
            <path id="path3924" d="m298.58 465.31c-11.26-11.21-17.01-27.87-23.96-45.38 21.85-54.64 92.57-114.73 122.83-139.5 3.34-1.91 2.28-1.6 8.01-9.14 19.87-26.16 64.68-60.51 91.81-91.51l20.73 19.03c-29.22 34.52-62.27 82.13-85.2 101.4-6.72 5.65-5.41 4.06-8.75 9.14-28.77 43.9-76.24 120.75-125.47 155.96z" fill="#fee2bd"/>
            <g id="g7169" fill="#fee2bd" transform="matrix(-.054011 -1.1212 -1.1212 .054011 840.47 1008.8)">
              <path id="path7171" d="m519.44 473.36c-2.83-0.53-5.04 0.59-7.04 1.74-9.43 5.38-8.1 13.2-4.79 22.5 36.18 19.86 51.71 25.53 92.61 39.39 39.61 25.87 78.17 30.04 81.7 42.84l7.58-15.72c-10.56 0.84-45.59-29.07-83.35-44.67-26.37-20.94-46.01-29.95-78.25-42.74-0.72-0.29-1.45-0.58-2.19-0.87-2.04-0.8-4.13-1.63-6.27-2.47z"/>
              <path id="path7173" d="m678.85 573.22c-1.29 10.23 6.67 15.38 10.37 15.93 4.72-1.3-3.29-7.65-4.66-9.81-3.68-5.78 6.31-7.13 7.04 2.53 1.02 13.58 7.25 13.12 4.5 0.99-1.42-6.28 3.13-7.62 3.57 1.74 0.7 14.81 6.13 12.77 4.8-0.37-0.66-6.4 1.87-4.23 2.42 2.62 0.72 8.95 5.38 7.94 4.08 0.31-1.04-6.14 2.59-5.63 3.91-2.01 1.79 4.94 3.73 4.51 3.67 1.94-2.44-9.53-24.15-28.5-36.89-21.86-2.86 1.49-2.33 4.36-2.81 7.99z"/>
            </g>
            <path id="rect4512" d="m284.19 355.33c3.93 3.32-2.14 13.95 12.49 11.63 10.02-2.17 15.69-8.25 20.97 0.85 16.61 28.64 25.89 35.32 43.19 49.65-6.89 23.28-53 40.48-67.01 55.35-13.21-13.26-19.95-30.65-26.27-46.28 8.08-21.86-2.9-47.48 16.63-71.2z" fill="#f93636"/>
            <path id="path4098" d="m516.37 202.84c7.49-8.78 17.15-23.12 24.15-32.35 2.26-4.52 10.15-0.59 17.23-8.06 9.14-10.92-39.88-44.32-51.78-49.19-6.23-2.7-17.44-0.44-12.8 15.3 3.3 11.39 18.83 9.54 20.63 23.66 0.82 12.32-19.36 28.57-19.15 28.78 0.56 0.59 18.74 19.06 21.72 21.86z" fill="#fff" fill-rule="evenodd"/>
            <path id="path3926" d="m280.23 519.98l62.02 14.09c-0.93 19.67-10.72 52.73-13.99 74.58-4.53 30.29-8.69 64.81-18.09 90.85 5.38 44.1-11.93 103.06-22.82 153.15l-19.17-1.52c2.15-56.3-3.03-108.85 11.92-153.12-4.7-42.74-12.45-131.39 0.13-178.03z" fill="#fee2bd"/>
            <path id="path3932" d="m266.92 927.8c-0.07 2.27 1.29 4 3.35 5.34 1.6-2.8 1.67-6.55 1.87-9.8l-4.9-1.76-0.32 6.22z" fill="#818181" fill-rule="evenodd"/>
            <path id="path3934" d="m289.65 850.39c0 0.18-2.96 17.22-3.59 21.98-0.8 4.19-1.1 7.95-1.64 11.89-0.53 4.06-0.65 9.05-0.46 11.99-0.11 8.3 0.66 14.73-0.58 22.36-0.94 3.59-3.87 7.52-9.56 8.42-4.83 1.06-10.05-0.02-13.36-3.96-3.71-5.04-3.53-9.81-2.2-15.82 0.91-7.43 5.1-15.97 5.74-23.81 0.44-5.38 1.6-9.4 1.86-13.36 0.34-6.75 0.5-16.97 0.6-20.03 2.53-1.62 20.04-1.24 23.19 0.34z" fill-rule="evenodd" stroke="#fff" stroke-width=".79094px" fill="#fff"/>
            <g id="g7175" fill="#fee2bd" transform="matrix(.92350 -.63813 .63813 .92350 -438.28 391.63)">
              <path id="path7177" d="m519.44 473.36c-2.83-0.53-5.04 0.59-7.04 1.74-9.43 5.38-8.1 13.2-4.79 22.5 36.18 19.86 51.71 25.53 92.61 39.39 39.61 25.87 78.17 30.04 81.7 42.84l7.58-15.72c-10.56 0.84-45.59-29.07-83.35-44.67-26.37-20.94-46.01-29.95-78.25-42.74-0.72-0.29-1.45-0.58-2.19-0.87-2.04-0.8-4.13-1.63-6.27-2.47z"/>
              <path id="path7179" d="m678.85 573.22c-1.29 10.23 6.67 15.38 10.37 15.93 4.72-1.3-3.29-7.65-4.66-9.81-3.68-5.78 6.31-7.13 7.04 2.53 1.02 13.58 7.25 13.12 4.5 0.99-1.42-6.28 3.13-7.62 3.57 1.74 0.7 14.81 6.13 12.77 4.8-0.37-0.66-6.4 1.87-4.23 2.42 2.62 0.72 8.95 5.38 7.94 4.08 0.31-1.04-6.14 2.59-5.63 3.91-2.01 1.79 4.94 3.73 4.51 3.67 1.94-2.44-9.53-24.15-28.5-36.89-21.86-2.86 1.49-2.33 4.36-2.81 7.99z"/>
            </g>
            <g id="g6193" transform="translate(4.6218 134.03)">
              <g id="g2947" transform="matrix(.93457 -.29669 .32482 .93852 -117.83 118.15)">
                <path id="path3948" d="m245.56 341.13c2.51-13.95 17.61-25 32.03-32.8 4.23-2.29 8.28-4.75 12.09-6.36 3.29-1.39 6.04-2.53 7.95-3.39 14.27-6.45 24.51 39.73 46.07 10.47 6.13-8.33 34.24 20.95 25.54 28.15-15.67 12.98-12.13 16.07 0.8 31.29 17.85 21.05-39.45 73.52-51.01 70.53-25.86-6.13-72.95-76.74-73.47-97.89z" fill="#fee3c0"/>
                <path id="path4510" d="m330.7 435.96c10.43-1.96 21.05-14.63 29.2-28.06 4.14-6.82 7.18-13.52 10.16-19.39 5.09-10.02 4.53-12.12 3.34-14.29-1.99-3.63-8.81 5.05-12.15 9.59-4.11 5.58-19.79 19.6-32.91 20.04-18.75 0.64-54.49-48.79-55-71.51-0.33-14.34 34.31-24.14 37.9-27.37 4.28-3.87-8.95-7.42-18.28-4.37-4.94 1.62-8.7 4.02-12.15 5.95-1 0.56-1.96 1.09-2.93 1.54-0.56 0.26-12.97 5.5-25.89 19.1-3.84 4.05-6.48 9.07-6.6 15.16-0.68 33.76 43.09 83.77 66.03 91.68 7.7 2.66 12.92 3.12 19.28 1.93z" fill="#ff2c2c"/>
              </g>
            </g>
            <g id="g3950" transform="matrix(.98705 .12608 -.12608 .98705 -133.19 -29.594)">
              <path id="path3952" d="m551.29 354.65c-7.56-2.28-16.08-2.45-23.45 0.08-6.05 2.37-11.45 5.9-16.39 10.06-4.16 4.3-6.33 9.4-9.07 14.63-3.04 6.22-3.67 13.54-3.58 20.51 0.47 6.11 3.01 10.03 4.84 15.98 0.03 1.18-1.21 4.2-2.07 6.06-0.82 1.8-2.01 3.97-3.44 5.7-2.05 2.47-4.38 4.08-5.36 3.96-0.16-0.02-2.41-0.14-5.26-1.13-5.56-1.91-13.88-5.49-16.82-6.84-7.56-3.31-22.36-15.84-20.5-18.33 4.53 5.71 37.55-42.71 48.1-54.32 4.11-4.28 8.63-9.88 15.44-13.74 6.13-3.03 11.39-5.88 21.92-5.94 13.39 0.18 25.17 4.17 33.11 9.12 5.68 3.4 11.29 8.5 14.45 14.61 5.18 8.7 7.05 19.3 6.36 28.52-1.28 10.67-5.04 21.88-9.02 33.42-1.98 7.28-3.26 13.76-4.44 20.34-1.36 7.64-2.71 11.08-3.12 15.76-0.15 1.74-2.09 7.45-0.68 10.34 0.3 0.62 0.76 1.11 1.43 1.4 1.79 0.78-20.14-5.18-23.3-6.86-2.17-1.15-15.18-5.82-22.76-9.28-3.17-1.45-4.75-3.55-4.62-3.89 0.5-1.31 3.64-8.91 4.41-10.46 0.62-1.23 1.98-2.55 3.49-3.56 2.94-1.99 8.98-0.92 13.12-3.35 4.25-2.03 10.71-6.97 14.52-11.66 2.72-3.01 6.06-8.03 8.56-14.55 1.6-5.98 2.49-11.69 2.26-17.91 0.15-12.43-8.3-24.5-18.13-28.67z" fill="#ffed71" fill-rule="evenodd"/>
              <path id="path3954" d="m223.02 176.1a37.169 45.532 0 1 1 -74.34 0 37.169 45.532 0 1 1 74.34 0z" fill="#fee2bd" transform="matrix(.85551 .38328 -.39852 .82039 445.07 175.67)"/>
              <g id="g3956" transform="matrix(.99990 -.013857 .013857 .99990 -100.79 -112.51)">
                <path id="path3958" d="m629.57 494.89c-2.32-7.4-9.27-11.6-19.81-9.21l-0.33 0.66c9.32-0.98 15.63 7.02 19.81 9.21l0.33-0.66z" fill="#4b3434"/>
                <path id="path3960" d="m622.27 505.94c-0.61-1.06-0.56-1.48-0.91-2.68-0.12-0.44-0.31-0.93-0.52-1.41-0.08-0.19-0.19-0.39-0.28-0.57-0.08-0.18-0.19-0.35-0.26-0.51-0.6-1.28-1.64-2.51-2.82-3.41-0.91-0.74-1.85-1.23-2.78-1.57-2.42-0.88-4.77-0.63-6.85 0.43 0.02 3.31 1.56 6.66 4.62 8.37 3.1 1.73 6.47 0.7 9.8 1.35z" stroke="#000" stroke-width=".76782" fill="#fff"/>
                <path id="path3962" d="m623.35 506.25c-0.31 0-0.35-0.77-0.49-0.94-0.14-0.19-0.26-0.46-0.37-0.96-0.22-0.94-0.46-1.8-0.73-2.62-0.15-0.48-0.43-0.96-0.61-1.39-0.25-0.61-0.65-1.13-0.97-1.63-0.08-0.13-0.1-0.21-0.18-0.32-0.02-0.04-0.06-0.09-0.08-0.13-2.88-4.71-7.43-5.4-12.27-2.96-0.5-2.2 2.58-5.27 3.44-5.65 1.09-0.4 4.72-0.83 7.81 1.12 2.77 1.74 3.87 2.68 5.31 5.44 0.65 1.25 1.47 3.59 1.58 5.98-0.13 1.94-1.39 3.53-2.44 4.06z" fill="#fab2b2"/>
                <path id="path3964" d="m623.03 506.47c-0.49-0.56-0.72-0.82-0.91-1.78-1.5-7.5-8.21-11.91-14.66-8.66-0.07-0.33-0.06-0.62-0.01-0.88 0.32-1.48 2.54-1.82 3.93-2.15 1.79-0.28 3.37-0.52 5.74 0.73 1.15 0.62 2.37 1.53 3.94 3.62 0.85 1.14 1.92 3.49 2.38 4.88 0.73 2.26 0.61 3.78-0.41 4.24z" fill="#ff7f7f"/>
                <path id="path3966" d="m432.47 398.43a27.02 29.22 0 1 1 -54.04 0 27.02 29.22 0 1 1 54.04 0z" fill="#74461a" transform="matrix(-.12873 -.073643 -.069816 .10718 694.46 487.66)"/>
                <path id="path3968" d="m432.18 398.43a26.728 29.22 0 1 1 -53.46 0 26.728 29.22 0 1 1 53.46 0z" transform="matrix(-.067998 -.030871 -.035408 .068134 656.12 486)"/>
                <path id="path3970" opacity=".79808" d="m380.09 401.16a3.5987 4.1128 0 1 1 -7.19 0 3.5987 4.1128 0 1 1 7.19 0z" fill="#fff" transform="matrix(-.16139 -.093778 -.089279 .13953 711.03 479.9)"/>
                <path id="path3972" d="m623.91 505.27l-0.2-0.03c-0.06 0.57-0.57 0.54-1.17 0.63l0.09 0.18c0.7-0.05 1.24-0.15 1.28-0.78z" stroke="#241f1c" stroke-width=".1138" fill="#241f1c"/>
                <path id="path3974" d="m623.51 504.37l-0.19-0.04c-0.06 0.58-0.5 0.5-1.11 0.63 0.01 0.04 0.03 0.13 0.06 0.19 0.69-0.07 1.21-0.15 1.24-0.78z" stroke="#241f1c" stroke-width=".1138" fill="#241f1c"/>
                <path id="path3976" d="m623.32 503.46l-0.2-0.04c-0.06 0.57-0.52 0.53-1.12 0.6l0.05 0.2c0.7-0.04 1.22-0.13 1.27-0.76z" stroke="#241f1c" stroke-width=".1138" fill="#241f1c"/>
                <path id="path3978" d="m623.03 502.5l-0.19-0.02c-0.02 0.57-0.48 0.57-1.08 0.68l0.06 0.19c0.69-0.09 1.22-0.22 1.21-0.85z" stroke="#241f1c" stroke-width=".1138" fill="#241f1c"/>
                <path id="path3980" d="m622.69 501.52l-0.2-0.02c0 0.58-0.46 0.59-1.05 0.73l0.07 0.19c0.69-0.12 1.21-0.27 1.18-0.9z" stroke="#241f1c" stroke-width=".1138" fill="#241f1c"/>
                <path id="path3982" d="m622.28 500.67h-0.2c0.04 0.57-0.41 0.61-0.99 0.78l0.08 0.19c0.68-0.16 1.18-0.34 1.11-0.97z" stroke="#241f1c" stroke-width=".1138" fill="#241f1c"/>
                <path id="path3984" d="m621.86 499.79l-0.2 0.01c0.06 0.57-0.4 0.63-0.97 0.83l0.09 0.17c0.68-0.19 1.18-0.39 1.08-1.01z" stroke="#241f1c" stroke-width=".1138" fill="#241f1c"/>
                <path id="path3986" stroke="#000" stroke-width=".1138" d="m621.36 498.94l-0.21 0.02c0.12 0.56-0.33 0.66-0.89 0.91l0.11 0.17c0.66-0.25 1.14-0.49 0.99-1.1z"/>
                <path id="path3988" d="m620.74 498.07l-0.2 0.04c0.16 0.54-0.29 0.68-0.83 0.98l0.12 0.15c0.65-0.3 1.11-0.59 0.91-1.17z" stroke="#241f1c" stroke-width=".1138" fill="#241f1c"/>
                <path id="path3990" d="m620.07 497.27l-0.2 0.05c0.2 0.52-0.24 0.7-0.76 1.03l0.13 0.15c0.62-0.35 1.07-0.67 0.83-1.23z" stroke="#241f1c" stroke-width=".1138" fill="#241f1c"/>
                <path id="path3992" d="m619.35 496.61l-0.19 0.07c0.23 0.51-0.19 0.7-0.69 1.06l0.14 0.14c0.6-0.38 1.02-0.72 0.74-1.27z" stroke="#241f1c" stroke-width=".1138" fill="#241f1c"/>
                <path id="path3994" d="m618.58 495.95l-0.19 0.08c0.27 0.49-0.14 0.72-0.61 1.12l0.15 0.12c0.58-0.42 0.97-0.79 0.65-1.32z" stroke="#241f1c" stroke-width=".1138" fill="#241f1c"/>
                <path id="path3996" d="m617.82 495.37l-0.19 0.09c0.31 0.46-0.1 0.71-0.56 1.13l0.17 0.11c0.56-0.45 0.94-0.84 0.58-1.33z" stroke="#241f1c" stroke-width=".1138" fill="#241f1c"/>
                <path id="path3998" d="m616.92 494.86l-0.18 0.11c0.35 0.43-0.03 0.71-0.44 1.18l0.17 0.09c0.51-0.5 0.85-0.93 0.45-1.38z" stroke="#241f1c" stroke-width=".1138" fill="#241f1c"/>
                <path id="path4000" d="m616.03 494.38l-0.17 0.12c0.39 0.4 0.04 0.72-0.32 1.22l0.17 0.08c0.47-0.55 0.77-1 0.32-1.42z" stroke="#241f1c" stroke-width=".1138" fill="#241f1c"/>
                <path id="path4002" d="m615.08 494l-0.16 0.14c0.43 0.35 0.08 0.72-0.25 1.23l0.19 0.07c0.42-0.58 0.71-1.07 0.22-1.44z" stroke="#241f1c" stroke-width=".1138" fill="#241f1c"/>
                <path id="path4004" d="m614.11 493.78l-0.15 0.15c0.46 0.31 0.17 0.68-0.11 1.22l0.19 0.05c0.37-0.61 0.59-1.1 0.07-1.42z" stroke="#241f1c" stroke-width=".1138" fill="#241f1c"/>
                <path id="path4006" d="m612.99 493.62l-0.13 0.16c0.49 0.27 0.24 0.67 0.01 1.24l0.2 0.02c0.3-0.64 0.48-1.15-0.08-1.42z" stroke="#241f1c" stroke-width=".1138" fill="#241f1c"/>
                <path id="path4008" d="m611.89 493.58l-0.11 0.18c0.53 0.19 0.33 0.6 0.17 1.19h0.21c0.22-0.66 0.33-1.18-0.27-1.37z" stroke="#241f1c" stroke-width=".1138" fill="#241f1c"/>
                <path id="path4010" d="m610.83 493.71l-0.09 0.18c0.55 0.15 0.38 0.58 0.28 1.17l0.2-0.01c0.16-0.68 0.23-1.21-0.39-1.34z" stroke="#241f1c" stroke-width=".1138" fill="#241f1c"/>
                <path id="path4012" d="m609.73 493.83l-0.08 0.19c0.56 0.1 0.44 0.54 0.4 1.14l0.2-0.04c0.1-0.69 0.1-1.21-0.52-1.29z" stroke="#241f1c" stroke-width=".1138" fill="#241f1c"/>
                <path id="path4014" d="m608.53 494.18l-0.04 0.2c0.58 0 0.53 0.44 0.58 1.02l0.2-0.06c-0.02-0.68-0.1-1.19-0.74-1.16z" stroke="#241f1c" stroke-width=".1138" fill="#241f1c"/>
                <path id="path4016" d="m607.38 494.6l-0.02 0.19c0.58-0.05 0.57 0.4 0.67 0.97l0.2-0.08c-0.08-0.67-0.2-1.17-0.85-1.08z" stroke="#241f1c" stroke-width=".1138" fill="#241f1c"/>
              </g>
              <path id="path4018" d="m346.72 189.82a1.6996 2.3794 0 1 1 -3.4 0 1.6996 2.3794 0 1 1 3.4 0z" fill="#fdc676" transform="matrix(.20484 -.42168 .42495 .19038 377.26 508.09)"/>
              <path id="path4020" d="m346.72 189.82a1.6996 2.3794 0 1 1 -3.4 0 1.6996 2.3794 0 1 1 3.4 0z" fill="#fdc676" transform="matrix(.20484 -.42168 .42495 .19038 381.37 509.93)"/>
              <path id="path4022" d="m513.44 403.76c1.07-0.35 1.95 1.39 5.18 1.26 2.35 0.03 3.98 0.29 5.19 1.21 1.12 1.06 1.05 2.47 2.05 3.24 1.17 0.33 1.89-0.45 3.52-0.17 1.77 0.35 2.58 1.32 3.53 3.18 0.91 2.38 3.81 2.6 3.77 3.81-0.85 0.7-2.48 1.25-3.66 1.36-8.52 1.09-13.68-1.9-18.67-8.89-0.94-1.46-1.53-3.54-0.91-5z" fill="#ff2d2d"/>
              <path id="path4024" opacity=".69048" d="m516.55 409.14c0.38-0.09 2.93 1.14 4.85 2.4 1.18 0.77 2.23 1.39 2.58 1.51 0.38 0.19 1.49 0.84 2.91 1.35 2.1 0.77 4.38 1.85 4.41 2.24-1.43 0.52-3.59 0.27-5.85-0.49-1.2-0.4-1.76-0.57-2.53-1.02-3.25-1.9-6.15-3.9-6.37-5.99z" fill="#fb6666"/>
              <path id="path4026" opacity=".69048" d="m518.79 406.06c1.68-0.01 2.25-0.02 3.22 0.41 0.37 0.18 1.81 1.74 1.81 2.6-3.55 1.65-7.33-2.86-5.03-3.01z" fill="#f76a6a"/>
              <path id="path4028" opacity=".69048" d="m343.77 206.2c1.94-1.07 2.6-1.44 4.01-1.53 0.55-0.02 3.24 0.95 3.8 2.02-3.05 4.24-10.39 1.15-7.81-0.49z" transform="matrix(-.66573 -.34658 -.35710 .63694 834.86 401.36)" filter="url(#filter4850)" fill="#f76a6a"/>
              <path id="path4030" opacity=".42" d="m577.23 359.77c-2.97-5.83-10.59-11.57-19.23-15.26-5.03-2.15-10.58-3.27-15.32-4.2-4.67-0.92-9.37-0.1-12.24 0.3-9.39 1.67-27.13 12.39-27.32 15.74 1.47 6.21 18.8-6.78 26.67-9.06 6.84-1.99 18.79-0.33 24.53 2.44 5.36 2.59 12.81 6.27 17 13.71 6.26 11.11 2.16 26.86 6.73 28.9 5.44-0.29 4.72-10.59 3.24-19.94-0.76-4.81-2.35-9.93-4.06-12.63z" fill="#fffdbd" fill-rule="evenodd"/>
              <path id="path4032" opacity=".42" d="m542.68 439.34c-4.17-0.5-6.2 3.66-2.29 5.95 5.22 2.68 10.79 4.81 16.22 7.15 3.46 0.95 4.74 3.36 6.61 5.37 3.29 0.19 4.65-2.83 5.04-4.9 0.75-2.15-3.75-11.12-4.07-14.05 0.13-2.18-0.48-5.73-0.41-9.46 0.08-4.01 1-8.5-0.13-11.54-0.34-3.35-5.76 22.51-20.97 21.48z" fill="#fffdbd" fill-rule="evenodd"/>
              <path id="path4034" opacity=".42" d="m466.43 401.51c-4.07-1.01-6.61 2.86-3.02 5.62 4.85 3.31 10.1 6.13 15.2 9.12 3.31 1.38 4.27 3.93 5.88 6.16 3.24 0.6 4.97-2.22 5.62-4.22 1.01-2.04-2.33-11.5-2.28-14.46 0.41-2.14 0.25-5.74 0.78-9.43 0.58-3.97 2.06-8.31 1.33-11.46 0.08-3.37-8.55 21.61-23.51 18.67z" fill="#fffdbd" fill-rule="evenodd"/>
              <g id="g4036" transform="matrix(-.53167 -.84695 -.84695 .53167 1301.1 650.2)">
                <path id="path4038" d="m629.57 494.89c-2.32-7.4-9.27-11.6-19.81-9.21l-0.33 0.66c9.32-0.98 15.63 7.02 19.81 9.21l0.33-0.66z" fill="#4b3434"/>
                <path id="path4040" d="m622.27 505.94c-0.61-1.06-0.56-1.48-0.91-2.68-0.12-0.44-0.31-0.93-0.52-1.41-0.08-0.19-0.19-0.39-0.28-0.57-0.08-0.18-0.19-0.35-0.26-0.51-0.6-1.28-1.64-2.51-2.82-3.41-0.91-0.74-1.85-1.23-2.78-1.57-2.42-0.88-4.77-0.63-6.85 0.43 0.02 3.31 1.56 6.66 4.62 8.37 3.1 1.73 6.47 0.7 9.8 1.35z" stroke="#000" stroke-width=".76782" fill="#fff"/>
                <path id="path4042" d="m623.35 506.25c-0.31 0-0.35-0.77-0.49-0.94-0.14-0.19-0.26-0.46-0.37-0.96-0.22-0.94-0.46-1.8-0.73-2.62-0.15-0.48-0.43-0.96-0.61-1.39-0.25-0.61-0.65-1.13-0.97-1.63-0.08-0.13-0.1-0.21-0.18-0.32-0.02-0.04-0.06-0.09-0.08-0.13-2.88-4.71-7.43-5.4-12.27-2.96-0.5-2.2 2.58-5.27 3.44-5.65 1.09-0.4 4.72-0.83 7.81 1.12 2.77 1.74 3.87 2.68 5.31 5.44 0.65 1.25 1.47 3.59 1.58 5.98-0.13 1.94-1.39 3.53-2.44 4.06z" fill="#fab2b2"/>
                <path id="path4044" d="m623.03 506.47c-0.49-0.56-0.72-0.82-0.91-1.78-1.5-7.5-8.21-11.91-14.66-8.66-0.07-0.33-0.06-0.62-0.01-0.88 0.32-1.48 2.54-1.82 3.93-2.15 1.79-0.28 3.37-0.52 5.74 0.73 1.15 0.62 2.37 1.53 3.94 3.62 0.85 1.14 1.92 3.49 2.38 4.88 0.73 2.26 0.61 3.78-0.41 4.24z" fill="#ff7f7f"/>
                <path id="path4046" d="m432.47 398.43a27.02 29.22 0 1 1 -54.04 0 27.02 29.22 0 1 1 54.04 0z" fill="#74461a" transform="matrix(-.12873 -.073643 -.069816 .10718 694.46 487.66)"/>
                <path id="path4048" d="m432.18 398.43a26.728 29.22 0 1 1 -53.46 0 26.728 29.22 0 1 1 53.46 0z" transform="matrix(-.067998 -.030871 -.035408 .068134 656.12 486)"/>
                <path id="path4050" opacity=".79808" d="m380.09 401.16a3.5987 4.1128 0 1 1 -7.19 0 3.5987 4.1128 0 1 1 7.19 0z" fill="#fff" transform="matrix(-.16139 -.093778 -.089279 .13953 711.03 479.9)"/>
                <path id="path4052" d="m623.91 505.27l-0.2-0.03c-0.06 0.57-0.57 0.54-1.17 0.63l0.09 0.18c0.7-0.05 1.24-0.15 1.28-0.78z" stroke="#241f1c" stroke-width=".1138" fill="#241f1c"/>
                <path id="path4054" d="m623.51 504.37l-0.19-0.04c-0.06 0.58-0.5 0.5-1.11 0.63 0.01 0.04 0.03 0.13 0.06 0.19 0.69-0.07 1.21-0.15 1.24-0.78z" stroke="#241f1c" stroke-width=".1138" fill="#241f1c"/>
                <path id="path4056" d="m623.32 503.46l-0.2-0.04c-0.06 0.57-0.52 0.53-1.12 0.6l0.05 0.2c0.7-0.04 1.22-0.13 1.27-0.76z" stroke="#241f1c" stroke-width=".1138" fill="#241f1c"/>
                <path id="path4058" d="m623.03 502.5l-0.19-0.02c-0.02 0.57-0.48 0.57-1.08 0.68l0.06 0.19c0.69-0.09 1.22-0.22 1.21-0.85z" stroke="#241f1c" stroke-width=".1138" fill="#241f1c"/>
                <path id="path4060" d="m622.69 501.52l-0.2-0.02c0 0.58-0.46 0.59-1.05 0.73l0.07 0.19c0.69-0.12 1.21-0.27 1.18-0.9z" stroke="#241f1c" stroke-width=".1138" fill="#241f1c"/>
                <path id="path4062" d="m622.28 500.67h-0.2c0.04 0.57-0.41 0.61-0.99 0.78l0.08 0.19c0.68-0.16 1.18-0.34 1.11-0.97z" stroke="#241f1c" stroke-width=".1138" fill="#241f1c"/>
                <path id="path4064" d="m621.86 499.79l-0.2 0.01c0.06 0.57-0.4 0.63-0.97 0.83l0.09 0.17c0.68-0.19 1.18-0.39 1.08-1.01z" stroke="#241f1c" stroke-width=".1138" fill="#241f1c"/>
                <path id="path4066" stroke="#000" stroke-width=".1138" d="m621.36 498.94l-0.21 0.02c0.12 0.56-0.33 0.66-0.89 0.91l0.11 0.17c0.66-0.25 1.14-0.49 0.99-1.1z"/>
                <path id="path4068" d="m620.74 498.07l-0.2 0.04c0.16 0.54-0.29 0.68-0.83 0.98l0.12 0.15c0.65-0.3 1.11-0.59 0.91-1.17z" stroke="#241f1c" stroke-width=".1138" fill="#241f1c"/>
                <path id="path4070" d="m620.07 497.27l-0.2 0.05c0.2 0.52-0.24 0.7-0.76 1.03l0.13 0.15c0.62-0.35 1.07-0.67 0.83-1.23z" stroke="#241f1c" stroke-width=".1138" fill="#241f1c"/>
                <path id="path4072" d="m619.35 496.61l-0.19 0.07c0.23 0.51-0.19 0.7-0.69 1.06l0.14 0.14c0.6-0.38 1.02-0.72 0.74-1.27z" stroke="#241f1c" stroke-width=".1138" fill="#241f1c"/>
                <path id="path4074" d="m618.58 495.95l-0.19 0.08c0.27 0.49-0.14 0.72-0.61 1.12l0.15 0.12c0.58-0.42 0.97-0.79 0.65-1.32z" stroke="#241f1c" stroke-width=".1138" fill="#241f1c"/>
                <path id="path4076" d="m617.82 495.37l-0.19 0.09c0.31 0.46-0.1 0.71-0.56 1.13l0.17 0.11c0.56-0.45 0.94-0.84 0.58-1.33z" stroke="#241f1c" stroke-width=".1138" fill="#241f1c"/>
                <path id="path4078" d="m616.92 494.86l-0.18 0.11c0.35 0.43-0.03 0.71-0.44 1.18l0.17 0.09c0.51-0.5 0.85-0.93 0.45-1.38z" stroke="#241f1c" stroke-width=".1138" fill="#241f1c"/>
                <path id="path4080" d="m616.03 494.38l-0.17 0.12c0.39 0.4 0.04 0.72-0.32 1.22l0.17 0.08c0.47-0.55 0.77-1 0.32-1.42z" stroke="#241f1c" stroke-width=".1138" fill="#241f1c"/>
                <path id="path4082" d="m615.08 494l-0.16 0.14c0.43 0.35 0.08 0.72-0.25 1.23l0.19 0.07c0.42-0.58 0.71-1.07 0.22-1.44z" stroke="#241f1c" stroke-width=".1138" fill="#241f1c"/>
                <path id="path4084" d="m614.11 493.78l-0.15 0.15c0.46 0.31 0.17 0.68-0.11 1.22l0.19 0.05c0.37-0.61 0.59-1.1 0.07-1.42z" stroke="#241f1c" stroke-width=".1138" fill="#241f1c"/>
                <path id="path4086" d="m612.99 493.62l-0.13 0.16c0.49 0.27 0.24 0.67 0.01 1.24l0.2 0.02c0.3-0.64 0.48-1.15-0.08-1.42z" stroke="#241f1c" stroke-width=".1138" fill="#241f1c"/>
                <path id="path4088" d="m611.89 493.58l-0.11 0.18c0.53 0.19 0.33 0.6 0.17 1.19h0.21c0.22-0.66 0.33-1.18-0.27-1.37z" stroke="#241f1c" stroke-width=".1138" fill="#241f1c"/>
                <path id="path4090" d="m610.83 493.71l-0.09 0.18c0.55 0.15 0.38 0.58 0.28 1.17l0.2-0.01c0.16-0.68 0.23-1.21-0.39-1.34z" stroke="#241f1c" stroke-width=".1138" fill="#241f1c"/>
                <path id="path4092" d="m609.73 493.83l-0.08 0.19c0.56 0.1 0.44 0.54 0.4 1.14l0.2-0.04c0.1-0.69 0.1-1.21-0.52-1.29z" stroke="#241f1c" stroke-width=".1138" fill="#241f1c"/>
                <path id="path4094" d="m608.53 494.18l-0.04 0.2c0.58 0 0.53 0.44 0.58 1.02l0.2-0.06c-0.02-0.68-0.1-1.19-0.74-1.16z" stroke="#241f1c" stroke-width=".1138" fill="#241f1c"/>
                <path id="path4096" d="m607.38 494.6l-0.02 0.19c0.58-0.05 0.57 0.4 0.67 0.97l0.2-0.08c-0.08-0.67-0.2-1.17-0.85-1.08z" stroke="#241f1c" stroke-width=".1138" fill="#241f1c"/>
              </g>
            </g>
          </g>
        </g>
      </g>
    </g>
  </g>
  <metadata>
    <rdf:RDF>
      <cc:Work>
        <dc:format>image/svg+xml</dc:format>
        <dc:type rdf:resource="http://purl.org/dc/dcmitype/StillImage"/>
        <cc:license rdf:resource="http://creativecommons.org/licenses/publicdomain/"/>
        <dc:publisher>
          <cc:Agent rdf:about="http://openclipart.org/">
            <dc:title>Openclipart</dc:title>
          </cc:Agent>
        </dc:publisher>
        <dc:title>ice skater</dc:title>
        <dc:date>2011-08-09T23:52:30</dc:date>
        <dc:description>woman ice skating</dc:description>
        <dc:source>http://openclipart.org/detail/154483/ice-skater-by-artmaker</dc:source>
        <dc:creator>
          <cc:Agent>
            <dc:title>Artmaker</dc:title>
          </cc:Agent>
        </dc:creator>
        <dc:subject>
          <rdf:Bag>
            <rdf:li>artistry</rdf:li>
            <rdf:li>athlete</rdf:li>
            <rdf:li>clip art</rdf:li>
            <rdf:li>clipart</rdf:li>
            <rdf:li>figure skater</rdf:li>
            <rdf:li>glide</rdf:li>
            <rdf:li>ice</rdf:li>
            <rdf:li>ice dancing</rdf:li>
            <rdf:li>skater</rdf:li>
            <rdf:li>sport</rdf:li>
          </rdf:Bag>
        </dc:subject>
      </cc:Work>
      <cc:License rdf:about="http://creativecommons.org/licenses/publicdomain/">
        <cc:permits rdf:resource="http://creativecommons.org/ns#Reproduction"/>
        <cc:permits rdf:resource="http://creativecommons.org/ns#Distribution"/>
        <cc:permits rdf:resource="http://creativecommons.org/ns#DerivativeWorks"/>
      </cc:License>
    </rdf:RDF>
  </metadata>
</svg>
